<svg xmlns="http://www.w3.org/2000/svg" viewBox="0 0 669.48 597.07"><defs><style>.cls-1{fill:#8b4513;}.cls-2{fill:#fff;}.cls-3,.cls-4,.cls-5{fill:none;stroke:#fff;}.cls-3{stroke-linecap:round;stroke-linejoin:round;}.cls-3,.cls-4{stroke-width:15.7px;}.cls-4,.cls-5{stroke-miterlimit:10;}.cls-5{stroke-width:15.64px;}</style></defs><g id="Layer_2" data-name="Layer 2"><g id="Layer_1-2" data-name="Layer 1"><rect class="cls-1" width="669.48" height="597.07" rx="89.33"/><path class="cls-2" d="M128.41,481.12V440.51h14.24a29.05,29.05,0,0,1,5.52.49,12.49,12.49,0,0,1,4.28,1.64,7.71,7.71,0,0,1,2.78,3.1,11,11,0,0,1,1,4.94,10.71,10.71,0,0,1-1.41,5.51,8.29,8.29,0,0,1-4.34,3.56,9.11,9.11,0,0,1,5.86,3.19,10.5,10.5,0,0,1,2,6.63A11.36,11.36,0,0,1,157,475.2a9.26,9.26,0,0,1-3.47,3.53,15.62,15.62,0,0,1-5.09,1.84,32,32,0,0,1-6.08.55Zm5-22.8h7.81a19.86,19.86,0,0,0,4-.38,9.52,9.52,0,0,0,3.22-1.23,6.15,6.15,0,0,0,2.15-2.24,6.93,6.93,0,0,0,.78-3.45,5.35,5.35,0,0,0-1.15-3.9,6,6,0,0,0-3.19-1.67,22.15,22.15,0,0,0-4.28-.4h-9.3Zm0,18.26h8.78a36.83,36.83,0,0,0,3.71-.2,13.38,13.38,0,0,0,3.59-.86,6,6,0,0,0,2.7-2.1,6.46,6.46,0,0,0,1-3.85,6.68,6.68,0,0,0-.77-3.38,5.71,5.71,0,0,0-2.07-2.07,9,9,0,0,0-3-1,20.06,20.06,0,0,0-3.39-.28H133.41Z"/><path class="cls-2" d="M166.54,481.12V450.85h4.71l.23,4.71a10.55,10.55,0,0,1,2.67-2.87,11.34,11.34,0,0,1,3.39-1.64,14.58,14.58,0,0,1,4.05-.54h1.55v4.59h-1.78a10,10,0,0,0-5.77,1.52,8.6,8.6,0,0,0-3.19,4.08,15.79,15.79,0,0,0-1,5.66v14.76Z"/><path class="cls-2" d="M192,446.37a3.16,3.16,0,0,1-2.39-.92,3.24,3.24,0,0,1-.89-2.35,3.12,3.12,0,0,1,.92-2.33,3.26,3.26,0,0,1,2.36-.89,3.36,3.36,0,0,1,2.32.92,3,3,0,0,1,1,2.3,3.08,3.08,0,0,1-1,2.35A3.28,3.28,0,0,1,192,446.37Zm-2.42,34.75V450.85h4.88v30.27Z"/><path class="cls-2" d="M215.88,481.46a12.77,12.77,0,0,1-7.47-2,12.27,12.27,0,0,1-4.37-5.51,20.51,20.51,0,0,1-1.43-7.84,21,21,0,0,1,1.43-7.9,12.32,12.32,0,0,1,4.43-5.6,13.17,13.17,0,0,1,7.64-2.06,15.23,15.23,0,0,1,3.58.43,13.25,13.25,0,0,1,3.42,1.32,9,9,0,0,1,2.76,2.38V440.51h4.88v40.61H226.1l-.23-4.54a8.66,8.66,0,0,1-2.62,2.79,12,12,0,0,1-3.47,1.58A15,15,0,0,1,215.88,481.46Zm.68-4.31a8.26,8.26,0,0,0,5.12-1.55,9.79,9.79,0,0,0,3.15-4.13,14.28,14.28,0,0,0,1.1-5.63,14.13,14.13,0,0,0-1.07-5.63,8.47,8.47,0,0,0-8.35-5.34,8.49,8.49,0,0,0-5.26,1.5,8.32,8.32,0,0,0-2.87,4,17.43,17.43,0,0,0-.89,5.72,17.64,17.64,0,0,0,.49,4.28,10.21,10.21,0,0,0,1.55,3.5,7.34,7.34,0,0,0,2.79,2.38A9.31,9.31,0,0,0,216.56,477.15Z"/><path class="cls-2" d="M253.2,494.67a16.94,16.94,0,0,1-5.74-.95,11,11,0,0,1-4.48-3,10.6,10.6,0,0,1-2.47-5.12h5.06a5.15,5.15,0,0,0,1.72,2.76,7.42,7.42,0,0,0,2.93,1.46,12.91,12.91,0,0,0,3.27.44,9.23,9.23,0,0,0,5-1.24,7,7,0,0,0,2.78-3.39,13,13,0,0,0,.86-4.91v-4.19a8.19,8.19,0,0,1-2.58,2.81,11,11,0,0,1-3.5,1.58,15.46,15.46,0,0,1-3.91.49,12.87,12.87,0,0,1-7.52-2,12,12,0,0,1-4.34-5.51,22.45,22.45,0,0,1,0-15.74,12.3,12.3,0,0,1,4.42-5.6,13.19,13.19,0,0,1,7.64-2.06,15.64,15.64,0,0,1,5.34,1,9.76,9.76,0,0,1,4.42,3.16l.23-3.79H267v30a16.46,16.46,0,0,1-1.52,7.35,10.57,10.57,0,0,1-4.59,4.76A16,16,0,0,1,253.2,494.67Zm-.34-17.52A8.24,8.24,0,0,0,258,475.6a9.81,9.81,0,0,0,3.16-4.13,15.28,15.28,0,0,0,0-11.26,8.47,8.47,0,0,0-8.36-5.34,8.48,8.48,0,0,0-5.25,1.5,8.33,8.33,0,0,0-2.87,4,18.44,18.44,0,0,0,0,11.38,8.22,8.22,0,0,0,2.93,4A8.77,8.77,0,0,0,252.86,477.15Z"/><path class="cls-2" d="M278.76,446.37a3.12,3.12,0,0,1-2.38-.92,3.2,3.2,0,0,1-.89-2.35,3.11,3.11,0,0,1,.91-2.33,3.28,3.28,0,0,1,2.36-.89,3.38,3.38,0,0,1,2.33.92,3,3,0,0,1,1,2.3,3.08,3.08,0,0,1-1,2.35A3.27,3.27,0,0,1,278.76,446.37Zm-2.41,34.75V450.85h4.88v30.27Z"/><path class="cls-2" d="M290.53,481.12V450.85h4.71l.23,4.6a9.15,9.15,0,0,1,2.64-2.76,12.25,12.25,0,0,1,3.53-1.64,14,14,0,0,1,3.77-.54,11.54,11.54,0,0,1,6.92,1.83,10.07,10.07,0,0,1,3.56,5,22,22,0,0,1,1.06,7.1v16.71h-4.88V465.73a31.45,31.45,0,0,0-.26-4.08,11.09,11.09,0,0,0-1-3.5,6,6,0,0,0-2.21-2.45,7.31,7.31,0,0,0-3.85-.89,8,8,0,0,0-5.09,1.67,10.1,10.1,0,0,0-3.15,4.48,17.75,17.75,0,0,0-1.07,6.32v13.84Z"/><path class="cls-2" d="M339.23,494.67a16.9,16.9,0,0,1-5.74-.95,11,11,0,0,1-4.48-3,10.51,10.51,0,0,1-2.47-5.12h5a5.17,5.17,0,0,0,1.73,2.76,7.42,7.42,0,0,0,2.93,1.46,12.91,12.91,0,0,0,3.27.44,9.17,9.17,0,0,0,5-1.24,6.94,6.94,0,0,0,2.79-3.39,13.19,13.19,0,0,0,.86-4.91v-4.19a8.19,8.19,0,0,1-2.58,2.81A11,11,0,0,1,342.1,481a15.33,15.33,0,0,1-3.9.49,12.87,12.87,0,0,1-7.52-2,12,12,0,0,1-4.34-5.51,22.45,22.45,0,0,1,0-15.74,12.23,12.23,0,0,1,4.42-5.6,13.19,13.19,0,0,1,7.64-2.06,15.64,15.64,0,0,1,5.34,1,9.76,9.76,0,0,1,4.42,3.16l.23-3.79h4.65v30a16.46,16.46,0,0,1-1.52,7.35A10.62,10.62,0,0,1,347,493,16,16,0,0,1,339.23,494.67Zm-.34-17.52A8.24,8.24,0,0,0,344,475.6a9.81,9.81,0,0,0,3.16-4.13,15.28,15.28,0,0,0,0-11.26,8.47,8.47,0,0,0-8.36-5.34,8.48,8.48,0,0,0-5.25,1.5,8.35,8.35,0,0,0-2.88,4,17,17,0,0,0-.89,5.63,16.84,16.84,0,0,0,.92,5.75,8.16,8.16,0,0,0,2.93,4A8.77,8.77,0,0,0,338.89,477.15Z"/><path class="cls-2" d="M391.78,481.12a12.55,12.55,0,0,1-5.54-1,6.24,6.24,0,0,1-3.05-3.21,14,14,0,0,1-.94-5.52V455.16h-4.94v-4.31h4.94v-9h4.88v9h8.1v4.31h-8.1v15.68a7.48,7.48,0,0,0,1.12,4.56c.74,1,2.27,1.47,4.56,1.47h2.24v4.25Z"/><path class="cls-2" d="M402.35,481.12V440.51h4.88v15a10.31,10.31,0,0,1,2.67-2.72,11.8,11.8,0,0,1,3.47-1.7,13.55,13.55,0,0,1,3.91-.57,11.52,11.52,0,0,1,6.92,1.83,9.89,9.89,0,0,1,3.53,5,22.76,22.76,0,0,1,1,7.15v16.66h-4.88V466a29.74,29.74,0,0,0-.26-4,12.48,12.48,0,0,0-1-3.59,6.09,6.09,0,0,0-2.27-2.58,7.55,7.55,0,0,0-4.11-1,7.82,7.82,0,0,0-4.22,1.1,8,8,0,0,0-2.78,2.9,14,14,0,0,0-1.52,4,18.74,18.74,0,0,0-.49,4.22v14.13Z"/><path class="cls-2" d="M451,481.46a14.81,14.81,0,0,1-8-2,12.1,12.1,0,0,1-4.7-5.48,19.47,19.47,0,0,1-1.56-8,18.64,18.64,0,0,1,1.64-8,12.84,12.84,0,0,1,4.8-5.48,14.14,14.14,0,0,1,7.75-2,13,13,0,0,1,6.12,1.35,12.35,12.35,0,0,1,4.22,3.59,14.89,14.89,0,0,1,2.41,4.91,17,17,0,0,1,.63,5.37c0,.34-.07.69-.08,1s-.05.69-.09,1H441.68a13.06,13.06,0,0,0,1.32,4.77,8.33,8.33,0,0,0,3.11,3.36,9.39,9.39,0,0,0,5,1.23,12.6,12.6,0,0,0,3-.37,7.64,7.64,0,0,0,2.75-1.29,5,5,0,0,0,1.76-2.47h5a9.74,9.74,0,0,1-2.58,4.8,11.75,11.75,0,0,1-4.54,2.75A17,17,0,0,1,451,481.46Zm-9.19-17.92h17.51a9.56,9.56,0,0,0-1.14-4.53,8,8,0,0,0-3-3.05,9.76,9.76,0,0,0-9.19.12,8.23,8.23,0,0,0-3,3.16A11.37,11.37,0,0,0,441.8,463.54Z"/><path class="cls-2" d="M507.15,481.58a19.07,19.07,0,0,1-10.48-2.67,16.24,16.24,0,0,1-6.2-7.33,26.2,26.2,0,0,1-2-10.62,29,29,0,0,1,1.12-8.27,19,19,0,0,1,3.42-6.63,15.59,15.59,0,0,1,5.77-4.43,19.67,19.67,0,0,1,8.18-1.58,20.29,20.29,0,0,1,7.81,1.38,14.63,14.63,0,0,1,5.49,3.85,14.05,14.05,0,0,1,3,5.86h-5.45a7.85,7.85,0,0,0-2.07-3.48A10.17,10.17,0,0,0,512,445.4a15,15,0,0,0-5.11-.81,13.36,13.36,0,0,0-6.09,1.27,11.2,11.2,0,0,0-4.14,3.47,14.94,14.94,0,0,0-2.35,5.17,25.74,25.74,0,0,0-.75,6.34A22.19,22.19,0,0,0,495,469a12,12,0,0,0,12.12,8,14.49,14.49,0,0,0,6.66-1.41,9.85,9.85,0,0,0,4.25-4.08,13,13,0,0,0,1.49-6.4H506.18v-4.53h18.09V464a19.69,19.69,0,0,1-2.07,9.25,14.78,14.78,0,0,1-5.89,6.14A18.11,18.11,0,0,1,507.15,481.58Z"/><path class="cls-2" d="M542.18,481.46a14.77,14.77,0,0,1-4-.54,10.69,10.69,0,0,1-3.44-1.67,8.2,8.2,0,0,1-2.42-2.81,8.38,8.38,0,0,1-.88-3.94,9.21,9.21,0,0,1,.94-4.36,7.43,7.43,0,0,1,2.56-2.82,11.22,11.22,0,0,1,3.73-1.49,20.65,20.65,0,0,1,4.42-.46H552a12.88,12.88,0,0,0-.71-4.48,6,6,0,0,0-2.33-3,7.66,7.66,0,0,0-4.25-1.06,12.32,12.32,0,0,0-3,.35,6.37,6.37,0,0,0-2.35,1.09,4.38,4.38,0,0,0-1.44,2h-5.22a7.88,7.88,0,0,1,1.58-3.53,9.77,9.77,0,0,1,2.87-2.42,13.74,13.74,0,0,1,3.65-1.4,16.75,16.75,0,0,1,3.9-.46q6.56,0,9.3,3.85t2.76,10.39v16.37h-4.08l-.28-3.85a8.71,8.71,0,0,1-3,2.64,12.46,12.46,0,0,1-3.64,1.24A21.38,21.38,0,0,1,542.18,481.46Zm.46-4.31a12,12,0,0,0,5-.94,7.23,7.23,0,0,0,3.25-2.79,8.33,8.33,0,0,0,1.14-4.48v-1.49h-5.34c-1.26,0-2.51,0-3.73.06a13.94,13.94,0,0,0-3.33.46,4.73,4.73,0,0,0-2.38,1.37,4,4,0,0,0-.89,2.82,4.24,4.24,0,0,0,.89,2.81,5.29,5.29,0,0,0,2.35,1.64A8.82,8.82,0,0,0,542.64,477.15Z"/><path class="cls-2" d="M566,492V450.85h4.65l.23,4.54a10.08,10.08,0,0,1,4.22-3.62,13.37,13.37,0,0,1,5.77-1.26,12.9,12.9,0,0,1,7.53,2,12,12,0,0,1,4.33,5.54A21.05,21.05,0,0,1,594.1,466a20.72,20.72,0,0,1-1.44,7.93,11.89,11.89,0,0,1-4.42,5.51,13.39,13.39,0,0,1-7.64,2,15.86,15.86,0,0,1-4.13-.49,10.18,10.18,0,0,1-3.22-1.43,11.55,11.55,0,0,1-2.41-2.21V492Zm14.24-14.88a8.38,8.38,0,0,0,5.29-1.52,8.57,8.57,0,0,0,2.84-4.05,16.73,16.73,0,0,0,.89-5.57,17,17,0,0,0-.89-5.63,8.25,8.25,0,0,0-2.9-4,8.72,8.72,0,0,0-5.34-1.5,8.48,8.48,0,0,0-5.09,1.52,9.6,9.6,0,0,0-3.18,4.08,14.05,14.05,0,0,0-1.09,5.6,14.91,14.91,0,0,0,1,5.69,8.58,8.58,0,0,0,3.16,4A9.19,9.19,0,0,0,580.2,477.15Z"/><rect class="cls-2" x="148.55" y="310.7" width="367.55" height="9.3"/><path class="cls-3" d="M145.18,315.44c1.12,0,2.24-.06,3.37-.06a91.82,91.82,0,0,1,91.87,91.87"/><path class="cls-3" d="M424.15,407.25a91.87,91.87,0,1,0-183.73,0"/><path class="cls-3" d="M424.24,407.25a91.81,91.81,0,0,1,91.86-91.87"/><line class="cls-4" x1="424.24" y1="407.25" x2="424.15" y2="407.25"/><path class="cls-3" d="M292.74,105.72c-2.95,24.28-14,88.39-66.06,147.13a272.17,272.17,0,0,1-78.38,61c-1.05.55-2.09,1.09-3.12,1.6"/><path class="cls-3" d="M367.83,105.72c2.88,23.91,13.7,87.05,64.54,144.9A266.57,266.57,0,0,0,509,310.7q3.65,1.91,7.14,3.61"/><line class="cls-4" x1="292.73" y1="105.72" x2="292.73" y2="315.38"/><line class="cls-5" x1="367.83" y1="105.72" x2="367.83" y2="315.38"/></g></g></svg>