<svg xmlns="http://www.w3.org/2000/svg" viewBox="0 0 750 500"><g id="freepik--Floor--inject-67"><path d="M9.11,352.78c0-.14,163.39-.26,364.9-.26s364.93.12,364.93.26S575.58,353,374,353,9.11,352.93,9.11,352.78Z" style="fill:#263238"></path></g><g id="freepik--Birds--inject-67"><path d="M437.61,93.83s-.83-.29-2.36-.63a18.93,18.93,0,0,0-6.59-.25,17.75,17.75,0,0,0-8.87,3.83,18.39,18.39,0,0,0-6.26,9.94l0,.11-.19.71-.27-.67a19.77,19.77,0,0,0-7.5-9.06,19.19,19.19,0,0,0-9.16-3,20.47,20.47,0,0,0-6.54.6c-1.51.4-2.31.75-2.32.7a2.82,2.82,0,0,1,.56-.27,13.92,13.92,0,0,1,1.71-.61,19.55,19.55,0,0,1,6.62-.76,19.22,19.22,0,0,1,9.37,3,20.08,20.08,0,0,1,7.71,9.25l-.46,0,0-.12a18.73,18.73,0,0,1,6.45-10.18,17.94,17.94,0,0,1,9.11-3.82,18.21,18.21,0,0,1,6.67.41,13.39,13.39,0,0,1,1.73.55A3.66,3.66,0,0,1,437.61,93.83Z" style="fill:#263238"></path><path d="M503.44,61.33s-.46-.13-1.31-.3a10.44,10.44,0,0,0-3.6-.1A9.79,9.79,0,0,0,493.7,63a10.12,10.12,0,0,0-3.4,5.42v.06l-.19.71-.27-.67a10.82,10.82,0,0,0-4.08-4.94,10.53,10.53,0,0,0-5-1.69,11.35,11.35,0,0,0-3.59.3c-.83.2-1.27.38-1.29.34a1.46,1.46,0,0,1,.31-.17,7,7,0,0,1,.93-.35,10.43,10.43,0,0,1,3.66-.46,10.62,10.62,0,0,1,5.2,1.66,11,11,0,0,1,4.29,5.13l-.46,0,0-.06a10.27,10.27,0,0,1,3.59-5.65,10,10,0,0,1,8.75-1.84,6.81,6.81,0,0,1,.95.32A1,1,0,0,1,503.44,61.33Z" style="fill:#263238"></path><path d="M460.4,46.55s-.45.51-1.27,1.43a30.77,30.77,0,0,0-7.68,20.41v.21l-.47,0a26.81,26.81,0,0,0-3-8.79,27.89,27.89,0,0,0-8.44-9.43c-1-.69-1.58-1-1.56-1.07s.16,0,.44.21.71.37,1.22.71a24.11,24.11,0,0,1,4.06,3.24,26.84,26.84,0,0,1,4.66,6.13,26.53,26.53,0,0,1,3.06,8.94l-.48,0v-.2A29.88,29.88,0,0,1,455.76,52,27.61,27.61,0,0,1,459,47.86c.42-.46.79-.77,1-1A2.2,2.2,0,0,1,460.4,46.55Z" style="fill:#263238"></path></g><g id="freepik--Land--inject-67"><path d="M229.3,396.35c-8.49-22.33-18.8-46.71-40.38-57-17.54-8.34-38.13-5.1-57.37-7.77C91,326,50.69,285.38,10.08,290.59l-2,140.6s213.49,1.72,313.65,0A182.91,182.91,0,0,0,229.3,396.35Z" style="fill:#455a64"></path><path d="M427.2,352.93H738.94V277.45s-66.27,13.42-69.64,12.68-27.81,25.06-27.81,25.06-38.54-2.63-41.61-6.37-15.66,6.37-15.66,6.37l-50.5,10.38-14.44,11.78Z" style="fill:#455a64"></path></g><g id="freepik--Water--inject-67"><path d="M368.1,431.19c0,.14-80.82.26-180.49.26s-180.5-.12-180.5-.26,80.8-.26,180.5-.26S368.1,431,368.1,431.19Z" style="fill:#263238"></path><path d="M484,439.49c0,.15-41.17.26-91.93.26s-91.94-.11-91.94-.26,41.16-.26,91.94-.26S484,439.35,484,439.49Z" style="fill:#263238"></path><path d="M405.87,449c0,.14-30.76.26-68.7.26s-68.71-.12-68.71-.26,30.76-.26,68.71-.26S405.87,448.89,405.87,449Z" style="fill:#263238"></path></g><g id="freepik--Bridge--inject-67"><rect x="62.09" y="257.65" width="6.14" height="90.18" transform="translate(130.32 605.48) rotate(180)" style="fill:#8B4513"></rect><rect x="62.09" y="257.65" width="6.14" height="90.18" transform="translate(130.32 605.48) rotate(180)" style="opacity:0.2"></rect><path d="M117.83,406.2c-.7-1.47-17.57-36.34-56.48-71.31a271.8,271.8,0,0,0-51.27-36.3v25.18c60.2,37.75,87.23,91.2,87.62,92l.6,1.25,20.13-9.58Z" style="fill:#8B4513"></path><path d="M117.1,405.79a1.79,1.79,0,0,1-.19-.34l-.52-1c-.45-.9-1.15-2.2-2.07-3.87-1.85-3.32-4.66-8.08-8.43-13.75a276.1,276.1,0,0,0-33.68-41.07c-1.85-1.82-3.66-3.65-5.49-5.4l-5.48-5.08c-3.61-3.31-7.22-6.36-10.71-9.21-7-5.67-13.55-10.45-19.19-14.27S21,305.07,17.75,303.11L14,300.86l-1-.59-.32-.21.35.17,1,.54c.88.49,2.18,1.2,3.83,2.16,3.3,1.91,8,4.76,13.69,8.55S43.82,320,50.83,325.69c3.51,2.84,7.13,5.89,10.75,9.21l5.5,5.07c1.83,1.76,3.64,3.58,5.5,5.41a267.93,267.93,0,0,1,33.62,41.24c3.74,5.71,6.5,10.49,8.3,13.85.89,1.69,1.56,3,2,3.92.19.44.35.78.47,1A2.37,2.37,0,0,1,117.1,405.79Z" style="fill:#263238"></path><rect x="716.13" y="254.56" width="6.14" height="90.18" style="fill:#8B4513"></rect><rect x="716.13" y="254.56" width="6.14" height="90.18" style="opacity:0.2"></rect><path d="M738.94,319c-5.3,4.12-11.46,8.75-15.93,12.76-38.91,35-55.79,69.85-56.48,71.31l-.6,1.26L686.06,414l.6-1.26c.3-.64,16.7-33.08,52.28-65.23Z" style="fill:#8B4513"></path><path d="M667.26,402.7a.76.76,0,0,1,.09-.26c.09-.2.19-.44.33-.74.29-.65.74-1.59,1.36-2.79,1.23-2.39,3.11-5.81,5.63-9.91a247.09,247.09,0,0,1,22.14-30.39A261.92,261.92,0,0,1,723,331.66c3.63-3.17,6.67-5.61,8.73-7.34l2.4-2,.63-.5a.86.86,0,0,1,.22-.15s-.06.07-.19.2l-.6.54-2.33,2c-2,1.78-5,4.26-8.61,7.46a282,282,0,0,0-26.08,27A262.92,262.92,0,0,0,675,389.19c-2.56,4.07-4.49,7.46-5.77,9.82-.65,1.18-1.13,2.1-1.45,2.73l-.37.72Z" style="fill:#263238"></path><rect x="195.18" y="259.99" width="6.14" height="90.18" style="fill:#8B4513"></rect><rect x="195.18" y="259.99" width="6.14" height="90.18" style="opacity:0.2"></rect><rect x="267.2" y="259.99" width="6.14" height="48.83" style="fill:#8B4513"></rect><rect x="267.2" y="259.99" width="6.14" height="48.83" style="opacity:0.2"></rect><rect x="593.74" y="259.99" width="6.14" height="90.18" transform="translate(1193.61 610.16) rotate(180)" style="fill:#8B4513"></rect><rect x="593.74" y="259.99" width="6.14" height="90.18" transform="translate(1193.61 610.16) rotate(180)" style="opacity:0.2"></rect><rect x="520.44" y="259.99" width="6.14" height="48.83" transform="translate(1047.02 568.81) rotate(180)" style="fill:#8B4513"></rect><rect x="520.44" y="259.99" width="6.14" height="48.83" transform="translate(1047.02 568.81) rotate(180)" style="opacity:0.2"></rect><rect x="381.6" y="259.99" width="6.14" height="26.16" style="fill:#8B4513"></rect><rect x="381.6" y="259.99" width="6.14" height="26.16" style="opacity:0.2"></rect><path d="M638.29,401.36c-.68-1.4-17.12-34.56-55.7-67.82-35.44-30.55-97.12-67-189.72-67S237.94,305,202.07,337.23c-38.91,35-55.79,69.84-56.49,71.31l-.6,1.26,20.13,9.58.6-1.25c.62-1.3,63.42-129.27,227.16-129.27,68.5,0,127.21,20.52,174.49,61,35.23,30.15,50.75,61,50.9,61.3l.62,1.24,20-9.78Z" style="fill:#8B4513"></path><path d="M146.31,408.13s.82-1.91,2.7-5.38,4.8-8.5,9-14.74a274.22,274.22,0,0,1,75.52-75.28,267.4,267.4,0,0,1,44.24-23.82c32.6-13.86,71.39-22.43,112.33-22.53a330.16,330.16,0,0,1,59.43,4.83A288.8,288.8,0,0,1,503,285.94a273,273,0,0,1,45.09,22.18,262.08,262.08,0,0,1,77.66,73c4.27,6.16,7.27,11.15,9.2,14.59s2.76,5.34,2.76,5.34-.25-.45-.7-1.35-1.18-2.23-2.15-3.94c-2-3.42-5-8.39-9.27-14.53a260.32,260.32,0,0,0-42.44-46.89,268,268,0,0,0-80.32-47.93,289.69,289.69,0,0,0-53.45-14.67,330.85,330.85,0,0,0-59.34-4.81c-40.87.1-79.59,8.64-112.14,22.46a266.83,266.83,0,0,0-44.2,23.73,275.65,275.65,0,0,0-75.58,75c-4.17,6.22-7.12,11.24-9,14.68-.94,1.73-1.65,3.06-2.1,4S146.31,408.13,146.31,408.13Z" style="fill:#263238"></path><rect x="95.71" y="427.67" width="67.7" height="56.2" style="fill:#8B4513"></rect><rect x="95.71" y="427.67" width="12.15" height="56.2" transform="translate(203.58 911.54) rotate(180)" style="opacity:0.2"></rect><rect x="151.27" y="427.67" width="12.15" height="56.2" style="opacity:0.4"></rect><rect x="108.61" y="261.85" width="41.9" height="145.71" style="fill:#8B4513"></rect><rect x="143.1" y="261.85" width="7.41" height="145.71" style="opacity:0.4"></rect><rect x="95.71" y="428.58" width="67.7" height="3.88" style="opacity:0.30000000000000004"></rect><rect x="108.61" y="403.52" width="41.9" height="3.13" style="opacity:0.30000000000000004"></rect><rect x="108.61" y="261.85" width="9.96" height="144.8" transform="translate(227.19 668.5) rotate(180)" style="opacity:0.2"></rect><rect x="86.44" y="406.65" width="86.71" height="21.93" style="fill:#8B4513"></rect><rect x="86.44" y="406.65" width="13.79" height="21.93" style="opacity:0.2"></rect><rect x="159.46" y="406.65" width="13.7" height="21.93" style="opacity:0.4"></rect><rect x="12.68" y="234.59" width="725.6" height="27.96" style="fill:#8B4513"></rect><path d="M173.15,406.65c0,.15-19.41.26-43.35.26s-43.36-.11-43.36-.26,19.41-.26,43.36-.26S173.15,406.51,173.15,406.65Z" style="fill:#263238"></path><path d="M173.15,428.58c0,.15-19.41.26-43.35.26s-43.36-.11-43.36-.26,19.41-.26,43.36-.26S173.15,428.44,173.15,428.58Z" style="fill:#263238"></path><rect x="618.54" y="427.67" width="67.7" height="56.2" style="fill:#8B4513"></rect><rect x="618.54" y="427.67" width="12.15" height="56.2" transform="translate(1249.22 911.54) rotate(180)" style="opacity:0.2"></rect><rect x="674.09" y="427.67" width="12.15" height="56.2" style="opacity:0.4"></rect><rect x="631.44" y="261.85" width="41.9" height="145.71" style="fill:#8B4513"></rect><rect x="665.93" y="261.85" width="7.41" height="145.71" style="opacity:0.4"></rect><rect x="618.54" y="428.58" width="67.7" height="3.88" style="opacity:0.30000000000000004"></rect><rect x="631.44" y="403.52" width="41.9" height="3.13" style="opacity:0.30000000000000004"></rect><rect x="631.44" y="261.85" width="9.96" height="144.8" transform="translate(1272.83 668.5) rotate(180)" style="opacity:0.2"></rect><rect x="609.27" y="406.65" width="86.71" height="21.93" style="fill:#8B4513"></rect><rect x="609.27" y="406.65" width="13.79" height="21.93" style="opacity:0.2"></rect><rect x="682.28" y="406.65" width="13.69" height="21.93" style="opacity:0.4"></rect><path d="M696,406.65c0,.15-19.41.26-43.35.26s-43.35-.11-43.35-.26,19.4-.26,43.35-.26S696,406.51,696,406.65Z" style="fill:#263238"></path><path d="M696,428.58c0,.15-19.41.26-43.35.26s-43.35-.11-43.35-.26,19.4-.26,43.35-.26S696,428.44,696,428.58Z" style="fill:#263238"></path><rect x="13.19" y="189.1" width="722.96" height="9.02" style="fill:#8B4513"></rect><rect x="28.88" y="193.61" width="7.84" height="41.12" style="fill:#8B4513"></rect><rect x="96.31" y="193.61" width="7.84" height="41.12" style="fill:#8B4513"></rect><rect x="163.75" y="193.61" width="7.84" height="41.12" style="fill:#8B4513"></rect><rect x="231.18" y="193.61" width="7.84" height="41.12" style="fill:#8B4513"></rect><rect x="298.62" y="193.61" width="7.84" height="41.12" style="fill:#8B4513"></rect><rect x="366.05" y="193.61" width="7.84" height="41.12" style="fill:#8B4513"></rect><rect x="433.49" y="193.61" width="7.84" height="41.12" style="fill:#8B4513"></rect><rect x="500.92" y="193.61" width="7.84" height="41.12" style="fill:#8B4513"></rect><rect x="568.35" y="193.61" width="7.84" height="41.12" style="fill:#8B4513"></rect><rect x="635.79" y="193.61" width="7.84" height="41.12" style="fill:#8B4513"></rect><rect x="703.22" y="193.61" width="7.84" height="41.12" style="fill:#8B4513"></rect><path d="M80.73,240.73c2.57,1.29,4.52,2.6,4.35,2.93s-2.38-.44-5-1.72-4.52-2.6-4.35-2.94S78.16,239.44,80.73,240.73Z" style="fill:#8B4513"></path><path d="M736.14,234.59c0,.14-161.69.26-361.1.26s-361.15-.12-361.15-.26,161.66-.26,361.15-.26S736.14,234.44,736.14,234.59Z" style="fill:#263238"></path><path d="M736.14,262.88c0,.14-161.69.26-361.1.26S13.89,263,13.89,262.88s161.66-.26,361.15-.26S736.14,262.73,736.14,262.88Z" style="fill:#263238"></path><path d="M736.14,198.12c0,.15-161.69.27-361.1.27s-361.15-.12-361.15-.27,161.66-.26,361.15-.26S736.14,198,736.14,198.12Z" style="fill:#263238"></path></g></svg>
