<svg xmlns="http://www.w3.org/2000/svg" viewBox="0 0 667.07 568.4"><defs><style>.cls-1{fill:#fff;}.cls-2,.cls-3,.cls-4{fill:none;stroke:#fff;}.cls-2{stroke-linecap:round;stroke-linejoin:round;}.cls-2,.cls-3{stroke-width:22.49px;}.cls-3,.cls-4{stroke-miterlimit:10;}.cls-4{stroke-width:22.4px;}</style></defs><g id="Layer_2" data-name="Layer 2"><g id="Layer_1-2" data-name="Layer 1"><path class="cls-1" d="M7.08,549V490.82h20.4a40.55,40.55,0,0,1,7.89.7,18,18,0,0,1,6.13,2.34,10.94,10.94,0,0,1,4,4.45,15.78,15.78,0,0,1,1.4,7.07,15.42,15.42,0,0,1-2,7.9,12,12,0,0,1-6.22,5.1q5.6,1,8.4,4.56t2.79,9.51A16.21,16.21,0,0,1,48,540.51a13.34,13.34,0,0,1-5,5.06,22.88,22.88,0,0,1-7.28,2.63,46.83,46.83,0,0,1-8.72.78Zm7.15-32.66H25.42a28.33,28.33,0,0,0,5.68-.53A13.88,13.88,0,0,0,35.7,514a8.8,8.8,0,0,0,3.09-3.21,10,10,0,0,0,1.11-4.93c.05-2.53-.5-4.39-1.65-5.6a8.44,8.44,0,0,0-4.56-2.38,30.46,30.46,0,0,0-6.13-.58H14.23Zm0,26.16H26.82a48.78,48.78,0,0,0,5.3-.29A19.4,19.4,0,0,0,37.27,541a8.49,8.49,0,0,0,3.86-3,9.22,9.22,0,0,0,1.48-5.51,9.5,9.5,0,0,0-1.11-4.86,8.08,8.08,0,0,0-3-3,12.9,12.9,0,0,0-4.24-1.48,28.86,28.86,0,0,0-4.85-.41H14.23Z" transform="translate(-7.08)"/><path class="cls-1" d="M61.7,549V505.63h6.74l.33,6.74a14.87,14.87,0,0,1,3.83-4.11,15.91,15.91,0,0,1,4.85-2.34,20.64,20.64,0,0,1,5.8-.79h2.22v6.59H82.92a14.22,14.22,0,0,0-8.26,2.18,12.14,12.14,0,0,0-4.57,5.84,22.58,22.58,0,0,0-1.4,8.1V549Z" transform="translate(-7.08)"/><path class="cls-1" d="M98.14,499.21a4.54,4.54,0,0,1-3.41-1.31,4.67,4.67,0,0,1-1.28-3.38,4.42,4.42,0,0,1,1.32-3.33,4.63,4.63,0,0,1,3.37-1.27,4.81,4.81,0,0,1,3.33,1.31,4.28,4.28,0,0,1,1.44,3.29,4.42,4.42,0,0,1-1.4,3.38A4.75,4.75,0,0,1,98.14,499.21ZM94.69,549V505.63h7V549Z" transform="translate(-7.08)"/><path class="cls-1" d="M132.36,549.47a18.25,18.25,0,0,1-10.69-2.92,17.44,17.44,0,0,1-6.25-7.89,29,29,0,0,1-2.06-11.23,29.59,29.59,0,0,1,2.06-11.31,17.47,17.47,0,0,1,6.33-8,18.76,18.76,0,0,1,10.94-3,22.22,22.22,0,0,1,5.14.62,19.29,19.29,0,0,1,4.9,1.89,12.77,12.77,0,0,1,4,3.42V490.82h7V549H147l-.32-6.5a12.38,12.38,0,0,1-3.75,4,16.49,16.49,0,0,1-5,2.26A21,21,0,0,1,132.36,549.47Zm1-6.16a11.87,11.87,0,0,0,7.32-2.23,14.15,14.15,0,0,0,4.53-5.92,20.54,20.54,0,0,0,1.56-8.06,20.29,20.29,0,0,0-1.52-8.06,12.1,12.1,0,0,0-12-7.65,12.17,12.17,0,0,0-7.53,2.14,12,12,0,0,0-4.11,5.8,24.76,24.76,0,0,0-1.28,8.18,25.4,25.4,0,0,0,.7,6.13,15.07,15.07,0,0,0,2.22,5,10.58,10.58,0,0,0,4,3.41A13.56,13.56,0,0,0,133.35,543.31Z" transform="translate(-7.08)"/><path class="cls-1" d="M185.83,568.4a24.27,24.27,0,0,1-8.22-1.36,15.74,15.74,0,0,1-6.42-4.24,15,15,0,0,1-3.54-7.32h7.24a7.4,7.4,0,0,0,2.47,3.95,10.76,10.76,0,0,0,4.19,2.1,18.76,18.76,0,0,0,4.69.61,13.21,13.21,0,0,0,7.2-1.76,10,10,0,0,0,4-4.86,18.87,18.87,0,0,0,1.24-7v-6a11.86,11.86,0,0,1-3.71,4,15.78,15.78,0,0,1-5,2.27,22.67,22.67,0,0,1-5.6.69q-6.58,0-10.77-2.92a17.25,17.25,0,0,1-6.22-7.89,32.23,32.23,0,0,1,0-22.54,17.47,17.47,0,0,1,6.33-8,18.76,18.76,0,0,1,10.94-3,22.46,22.46,0,0,1,7.65,1.4,14,14,0,0,1,6.34,4.53l.33-5.43h6.66v43a23.7,23.7,0,0,1-2.18,10.53A15.3,15.3,0,0,1,196.9,566,23.05,23.05,0,0,1,185.83,568.4Zm-.49-25.09a11.85,11.85,0,0,0,7.32-2.23,14.15,14.15,0,0,0,4.53-5.92,20.54,20.54,0,0,0,1.56-8.06,20.29,20.29,0,0,0-1.52-8.06,12.1,12.1,0,0,0-12-7.65,12.17,12.17,0,0,0-7.53,2.14,12,12,0,0,0-4.11,5.75,24.18,24.18,0,0,0-1.28,8.07,23.86,23.86,0,0,0,1.32,8.22,11.58,11.58,0,0,0,4.19,5.68A12.62,12.62,0,0,0,185.34,543.31Z" transform="translate(-7.08)"/><path class="cls-1" d="M222.44,499.21A4.54,4.54,0,0,1,219,497.9a4.63,4.63,0,0,1-1.28-3.38,4.42,4.42,0,0,1,1.32-3.33,4.63,4.63,0,0,1,3.37-1.27,4.81,4.81,0,0,1,3.33,1.31,4.28,4.28,0,0,1,1.44,3.29,4.46,4.46,0,0,1-1.4,3.38A4.75,4.75,0,0,1,222.44,499.21ZM219,549V505.63h7V549Z" transform="translate(-7.08)"/><path class="cls-1" d="M239.3,549V505.63h6.75l.33,6.58a13.08,13.08,0,0,1,3.78-4,17.44,17.44,0,0,1,5.06-2.34,19.76,19.76,0,0,1,5.39-.79q6.33,0,9.91,2.64a14.18,14.18,0,0,1,5.1,7.11A31.39,31.39,0,0,1,277.15,525V549h-7V526.93a44.11,44.11,0,0,0-.37-5.84,15.59,15.59,0,0,0-1.48-5,8.46,8.46,0,0,0-3.17-3.5,10.35,10.35,0,0,0-5.51-1.28,11.34,11.34,0,0,0-7.28,2.39,14.5,14.5,0,0,0-4.52,6.42,25.3,25.3,0,0,0-1.52,9V549Z" transform="translate(-7.08)"/><path class="cls-1" d="M309.06,568.4a24.27,24.27,0,0,1-8.22-1.36,15.74,15.74,0,0,1-6.42-4.24,15,15,0,0,1-3.54-7.32h7.24a7.4,7.4,0,0,0,2.47,3.95,10.69,10.69,0,0,0,4.19,2.1,18.76,18.76,0,0,0,4.69.61,13.24,13.24,0,0,0,7.2-1.76,10,10,0,0,0,4-4.86,18.87,18.87,0,0,0,1.24-7v-6a11.86,11.86,0,0,1-3.71,4,15.78,15.78,0,0,1-5,2.27,22.67,22.67,0,0,1-5.6.69q-6.58,0-10.78-2.92a17.3,17.3,0,0,1-6.21-7.89,32.3,32.3,0,0,1,0-22.54,17.49,17.49,0,0,1,6.34-8,18.76,18.76,0,0,1,10.94-3,22.46,22.46,0,0,1,7.65,1.4,14,14,0,0,1,6.34,4.53l.32-5.43h6.67v43a23.7,23.7,0,0,1-2.18,10.53,15.3,15.3,0,0,1-6.58,6.83A23.08,23.08,0,0,1,309.06,568.4Zm-.49-25.09a11.87,11.87,0,0,0,7.32-2.23,14.15,14.15,0,0,0,4.53-5.92A20.54,20.54,0,0,0,322,527.1a20.29,20.29,0,0,0-1.52-8.06,12.1,12.1,0,0,0-12-7.65,12.17,12.17,0,0,0-7.53,2.14,12,12,0,0,0-4.11,5.75,24.18,24.18,0,0,0-1.28,8.07,23.86,23.86,0,0,0,1.32,8.22,11.58,11.58,0,0,0,4.19,5.68A12.62,12.62,0,0,0,308.57,543.31Z" transform="translate(-7.08)"/><path class="cls-1" d="M384.33,549a18.05,18.05,0,0,1-7.94-1.48,9,9,0,0,1-4.36-4.61,20,20,0,0,1-1.35-7.89V511.8H363.6v-6.17h7.08V492.71h7v12.92h11.6v6.17h-11.6v22.46q0,4.44,1.6,6.54t6.54,2.09H389V549Z" transform="translate(-7.08)"/><path class="cls-1" d="M399.47,549V490.82h7v21.47a15.31,15.31,0,0,1,3.83-3.91,17,17,0,0,1,5-2.42,19.18,19.18,0,0,1,5.6-.83q6.33,0,9.91,2.64a14,14,0,0,1,5.06,7.11,32.59,32.59,0,0,1,1.48,10.25V549h-7V527.26a45.25,45.25,0,0,0-.37-5.71,17.74,17.74,0,0,0-1.44-5.15,8.8,8.8,0,0,0-3.25-3.7,10.84,10.84,0,0,0-5.88-1.4,11.23,11.23,0,0,0-6.05,1.57,11.59,11.59,0,0,0-4,4.15,20.55,20.55,0,0,0-2.18,5.68,27,27,0,0,0-.7,6V549Z" transform="translate(-7.08)"/><path class="cls-1" d="M469.15,549.47a21.21,21.21,0,0,1-11.44-2.83,17.26,17.26,0,0,1-6.74-7.86,27.82,27.82,0,0,1-2.23-11.43,26.69,26.69,0,0,1,2.35-11.48A18.36,18.36,0,0,1,458,508a20.26,20.26,0,0,1,11.1-2.88,18.58,18.58,0,0,1,8.77,1.94,17.82,17.82,0,0,1,6,5.14,21.46,21.46,0,0,1,3.46,7,24.62,24.62,0,0,1,.9,7.69c-.05.5-.1,1-.12,1.49s-.07,1-.13,1.48H455.82a18.23,18.23,0,0,0,1.89,6.82,11.93,11.93,0,0,0,4.44,4.82,13.45,13.45,0,0,0,7.16,1.77,17.87,17.87,0,0,0,4.32-.54,10.94,10.94,0,0,0,3.95-1.85,7.13,7.13,0,0,0,2.51-3.54h7.15a13.75,13.75,0,0,1-3.7,6.87,16.72,16.72,0,0,1-6.5,4A24.52,24.52,0,0,1,469.15,549.47ZM456,523.81h25.09a13.69,13.69,0,0,0-1.64-6.5,11.39,11.39,0,0,0-4.24-4.36,12.4,12.4,0,0,0-6.37-1.56,12.56,12.56,0,0,0-6.79,1.72,11.81,11.81,0,0,0-4.24,4.53A16.58,16.58,0,0,0,456,523.81Z" transform="translate(-7.08)"/><path class="cls-1" d="M549.6,549.64q-9,0-15-3.83a23.24,23.24,0,0,1-8.89-10.48,37.57,37.57,0,0,1-2.92-15.22,41.66,41.66,0,0,1,1.61-11.85,27.2,27.2,0,0,1,4.89-9.5,22.27,22.27,0,0,1,8.27-6.34,28.23,28.23,0,0,1,11.72-2.26,29.05,29.05,0,0,1,11.19,2,20.71,20.71,0,0,1,7.86,5.51,20.1,20.1,0,0,1,4.31,8.39h-7.81a11.23,11.23,0,0,0-3-5,14.55,14.55,0,0,0-5.35-3.25,21.8,21.8,0,0,0-7.32-1.15,19.4,19.4,0,0,0-8.72,1.81,16,16,0,0,0-5.92,5,21.19,21.19,0,0,0-3.38,7.4,37.26,37.26,0,0,0-1.07,9.09,31.86,31.86,0,0,0,2.06,11.68,18.4,18.4,0,0,0,6.33,8.39q4.28,3.13,11,3.13a20.81,20.81,0,0,0,9.54-2,14.33,14.33,0,0,0,6.09-5.85,18.56,18.56,0,0,0,2.14-9.17H548.2v-6.5h25.92v4.86a28.16,28.16,0,0,1-3,13.24,21.11,21.11,0,0,1-8.43,8.8A26,26,0,0,1,549.6,549.64Z" transform="translate(-7.08)"/><path class="cls-1" d="M599.78,549.47a21,21,0,0,1-5.72-.78,15.15,15.15,0,0,1-4.93-2.38,11.61,11.61,0,0,1-3.46-4,12,12,0,0,1-1.27-5.64,13.22,13.22,0,0,1,1.35-6.25,10.72,10.72,0,0,1,3.66-4,16.09,16.09,0,0,1,5.35-2.14,29.83,29.83,0,0,1,6.34-.66h12.75a18.18,18.18,0,0,0-1-6.41,8.56,8.56,0,0,0-3.33-4.24,10.86,10.86,0,0,0-6.09-1.52,17.58,17.58,0,0,0-4.28.49,9.19,9.19,0,0,0-3.37,1.56,6.29,6.29,0,0,0-2.06,2.88h-7.48a11.32,11.32,0,0,1,2.26-5.06,13.76,13.76,0,0,1,4.11-3.45,19.92,19.92,0,0,1,5.23-2,24.19,24.19,0,0,1,5.59-.66q9.38,0,13.33,5.52t3.94,14.89V549h-5.84l-.41-5.51a12.27,12.27,0,0,1-4.36,3.78,17.72,17.72,0,0,1-5.22,1.77A30.53,30.53,0,0,1,599.78,549.47Zm.66-6.16a17.21,17.21,0,0,0,7.11-1.36,10.45,10.45,0,0,0,4.65-4,11.88,11.88,0,0,0,1.65-6.42V529.4H606.2c-1.81,0-3.6,0-5.35.08a21.28,21.28,0,0,0-4.77.66,7,7,0,0,0-3.42,2,5.76,5.76,0,0,0-1.27,4,6.17,6.17,0,0,0,1.27,4,7.74,7.74,0,0,0,3.38,2.34A12.29,12.29,0,0,0,600.44,543.31Z" transform="translate(-7.08)"/><path class="cls-1" d="M633.84,564.61v-59h6.66l.33,6.5a14.53,14.53,0,0,1,6-5.19,19.15,19.15,0,0,1,8.26-1.81,18.52,18.52,0,0,1,10.78,2.92,17.25,17.25,0,0,1,6.21,7.94,30.35,30.35,0,0,1,2,11.36,29.74,29.74,0,0,1-2.06,11.35,17.1,17.1,0,0,1-6.33,7.9c-2.86,1.92-6.5,2.87-11,2.87a23.41,23.41,0,0,1-5.92-.69,15.05,15.05,0,0,1-4.61-2.06,16.81,16.81,0,0,1-3.45-3.17v21.06Zm20.4-21.3a12,12,0,0,0,7.57-2.18,12.45,12.45,0,0,0,4.07-5.8,23.94,23.94,0,0,0,1.27-8,24.18,24.18,0,0,0-1.27-8.07,11.87,11.87,0,0,0-4.16-5.75,12.5,12.5,0,0,0-7.65-2.14,12,12,0,0,0-7.28,2.18,13.65,13.65,0,0,0-4.56,5.84,20.23,20.23,0,0,0-1.56,8,21.24,21.24,0,0,0,1.48,8.14,12.18,12.18,0,0,0,4.52,5.68A13.23,13.23,0,0,0,654.24,543.31Z" transform="translate(-7.08)"/><rect class="cls-1" x="28.85" y="304.87" width="526.5" height="13.32"/><path class="cls-2" d="M31.09,311.67q2.42-.09,4.83-.09a131.46,131.46,0,0,1,131.6,131.59" transform="translate(-7.08)"/><path class="cls-2" d="M430.7,443.17a131.59,131.59,0,1,0-263.18,0" transform="translate(-7.08)"/><path class="cls-2" d="M430.83,443.17A131.45,131.45,0,0,1,562.42,311.58" transform="translate(-7.08)"/><line class="cls-3" x1="423.75" y1="443.17" x2="423.63" y2="443.17"/><path class="cls-2" d="M242.46,11.25C238.24,46,222.38,137.86,147.84,222A389.93,389.93,0,0,1,35.57,309.37c-1.51.79-3,1.55-4.48,2.3" transform="translate(-7.08)"/><path class="cls-2" d="M350,11.25c4.12,34.25,19.62,124.7,92.45,207.56a381.62,381.62,0,0,0,109.71,86.06q5.22,2.73,10.23,5.17" transform="translate(-7.08)"/><line class="cls-3" x1="235.38" y1="11.25" x2="235.38" y2="311.58"/><line class="cls-4" x1="342.96" y1="11.25" x2="342.96" y2="311.58"/></g></g></svg>