<svg xmlns="http://www.w3.org/2000/svg" viewBox="0 0 555.89 473.66"><defs><style>.cls-1{fill:#fdf8f2;}.cls-2,.cls-3,.cls-4{fill:none;stroke:#fdf8f2;}.cls-2{stroke-linecap:round;stroke-linejoin:round;}.cls-2,.cls-3{stroke-width:18.74px;}.cls-3,.cls-4{stroke-miterlimit:10;}.cls-4{stroke-width:18.67px;}.cls-5{fill:#fdf8f2;}</style></defs><g id="Layer_2" data-name="Layer 2"><g id="Layer_1-2" data-name="Layer 1"><rect class="cls-1" x="24.04" y="254.05" width="438.74" height="11.1"/><path class="cls-2" d="M25.91,259.72c1.34-.05,2.68-.07,4-.07A109.54,109.54,0,0,1,139.6,369.31" transform="translate(-5.9)"/><path class="cls-2" d="M358.92,369.31a109.66,109.66,0,1,0-219.32,0" transform="translate(-5.9)"/><path class="cls-2" d="M359,369.31A109.54,109.54,0,0,1,468.68,259.65" transform="translate(-5.9)"/><line class="cls-3" x1="353.13" y1="369.31" x2="353.02" y2="369.31"/><path class="cls-2" d="M202.05,9.37c-3.52,29-16.73,105.51-78.85,175.63a325.08,325.08,0,0,1-93.56,72.81l-3.73,1.91" transform="translate(-5.9)"/><path class="cls-2" d="M291.69,9.37c3.44,28.55,16.35,103.92,77,173a318,318,0,0,0,91.43,71.72q4.35,2.26,8.52,4.3" transform="translate(-5.9)"/><line class="cls-3" x1="196.15" y1="9.37" x2="196.15" y2="259.65"/><line class="cls-4" x1="285.8" y1="9.37" x2="285.8" y2="259.65"/><path class="cls-5" d="M5.9,457.48V409h17a34,34,0,0,1,6.58.58,14.82,14.82,0,0,1,5.1,1.95,9.16,9.16,0,0,1,3.33,3.7,13.13,13.13,0,0,1,1.17,5.9,12.81,12.81,0,0,1-1.68,6.58A10,10,0,0,1,32.22,432a10.84,10.84,0,0,1,7,3.81,12.43,12.43,0,0,1,2.33,7.91,13.58,13.58,0,0,1-1.5,6.72,11.21,11.21,0,0,1-4.15,4.22,18.77,18.77,0,0,1-6.07,2.19,38.4,38.4,0,0,1-7.27.65Zm6-27.21h9.32a23.52,23.52,0,0,0,4.73-.45,11.56,11.56,0,0,0,3.84-1.47,7.33,7.33,0,0,0,2.57-2.68,8.22,8.22,0,0,0,.93-4.11,6.35,6.35,0,0,0-1.37-4.66,7,7,0,0,0-3.81-2,25.61,25.61,0,0,0-5.1-.48H11.86Zm0,21.8H22.35a42.63,42.63,0,0,0,4.42-.24,16.25,16.25,0,0,0,4.28-1,7.2,7.2,0,0,0,3.23-2.5,7.76,7.76,0,0,0,1.23-4.6,7.87,7.87,0,0,0-.93-4,6.7,6.7,0,0,0-2.46-2.47A10.77,10.77,0,0,0,28.59,436a23.73,23.73,0,0,0-4.05-.35H11.86Z" transform="translate(-5.9)"/><path class="cls-5" d="M51.42,457.48V421.35H57l.27,5.63a12.41,12.41,0,0,1,3.19-3.43,13.16,13.16,0,0,1,4-1.95,17,17,0,0,1,4.84-.66h1.85v5.49H69.1a11.93,11.93,0,0,0-6.89,1.81,10.19,10.19,0,0,0-3.8,4.87,18.76,18.76,0,0,0-1.17,6.75v17.62Z" transform="translate(-5.9)"/><path class="cls-5" d="M81.78,416a3.77,3.77,0,0,1-2.84-1.1,3.86,3.86,0,0,1-1.06-2.81A3.71,3.71,0,0,1,79,409.32a3.91,3.91,0,0,1,2.81-1.06,4,4,0,0,1,2.78,1.1,3.55,3.55,0,0,1,1.2,2.74,3.68,3.68,0,0,1-1.17,2.81A3.94,3.94,0,0,1,81.78,416ZM78.9,457.48V421.35h5.83v36.13Z" transform="translate(-5.9)"/><path class="cls-5" d="M110.3,457.89a15.26,15.26,0,0,1-8.91-2.43,14.62,14.62,0,0,1-5.21-6.58,24.36,24.36,0,0,1-1.72-9.36,24.85,24.85,0,0,1,1.72-9.42,14.57,14.57,0,0,1,5.28-6.69,15.69,15.69,0,0,1,9.12-2.47,18.08,18.08,0,0,1,4.28.52,16.27,16.27,0,0,1,4.08,1.57,10.66,10.66,0,0,1,3.29,2.85V409h5.83v48.46H122.5l-.27-5.41a10.25,10.25,0,0,1-3.12,3.32,13.85,13.85,0,0,1-4.15,1.89A17.68,17.68,0,0,1,110.3,457.89Zm.82-5.14a9.81,9.81,0,0,0,6.1-1.85A11.71,11.71,0,0,0,121,446a17.27,17.27,0,0,0,1.3-6.72,16.75,16.75,0,0,0-1.27-6.72,10.11,10.11,0,0,0-10-6.38,9.39,9.39,0,0,0-9.7,6.62,20.86,20.86,0,0,0-1.06,6.82,21.26,21.26,0,0,0,.59,5.11,12.2,12.2,0,0,0,1.85,4.18,8.65,8.65,0,0,0,3.32,2.84A11.2,11.2,0,0,0,111.12,452.75Z" transform="translate(-5.9)"/><path class="cls-5" d="M154.86,473.66a20.31,20.31,0,0,1-6.86-1.13,13.06,13.06,0,0,1-5.34-3.53,12.44,12.44,0,0,1-2.95-6.1h6a6.17,6.17,0,0,0,2.06,3.29,9.09,9.09,0,0,0,3.5,1.75,15.59,15.59,0,0,0,3.9.51,11,11,0,0,0,6-1.47,8.45,8.45,0,0,0,3.33-4.05,15.75,15.75,0,0,0,1-5.86v-5a9.84,9.84,0,0,1-3.08,3.36,13.26,13.26,0,0,1-4.18,1.88,18.54,18.54,0,0,1-4.66.58,15.38,15.38,0,0,1-9-2.43,14.36,14.36,0,0,1-5.18-6.58,26.86,26.86,0,0,1,0-18.78,14.7,14.7,0,0,1,5.28-6.69,15.73,15.73,0,0,1,9.12-2.47,18.63,18.63,0,0,1,6.38,1.17,11.62,11.62,0,0,1,5.27,3.77l.28-4.53h5.55v35.86a19.7,19.7,0,0,1-1.81,8.77,12.69,12.69,0,0,1-5.49,5.69A19.15,19.15,0,0,1,154.86,473.66Zm-.41-20.91a9.83,9.83,0,0,0,6.1-1.85,11.69,11.69,0,0,0,3.77-4.93,17.09,17.09,0,0,0,1.3-6.72,16.75,16.75,0,0,0-1.27-6.72,10.6,10.6,0,0,0-3.73-4.66,10.73,10.73,0,0,0-6.24-1.72,10.14,10.14,0,0,0-6.27,1.79,10,10,0,0,0-3.43,4.79,22,22,0,0,0,0,13.58,9.71,9.71,0,0,0,3.5,4.73A10.51,10.51,0,0,0,154.45,452.75Z" transform="translate(-5.9)"/><path class="cls-5" d="M185.37,416a3.8,3.8,0,0,1-2.85-1.1,3.86,3.86,0,0,1-1.06-2.81,3.68,3.68,0,0,1,1.1-2.78,3.89,3.89,0,0,1,2.81-1.06,4,4,0,0,1,2.77,1.1,3.55,3.55,0,0,1,1.2,2.74,3.71,3.71,0,0,1-1.16,2.81A4,4,0,0,1,185.37,416Zm-2.88,41.47V421.35h5.82v36.13Z" transform="translate(-5.9)"/><path class="cls-5" d="M199.42,457.48V421.35H205l.27,5.49a10.91,10.91,0,0,1,3.16-3.29,14.32,14.32,0,0,1,4.21-1.95,16.22,16.22,0,0,1,4.49-.66c3.52,0,6.28.74,8.27,2.2a12,12,0,0,1,4.25,5.93,26.39,26.39,0,0,1,1.26,8.46v20h-5.82V439.11a38.22,38.22,0,0,0-.31-4.87,13.25,13.25,0,0,0-1.24-4.18,7.05,7.05,0,0,0-2.63-2.91,8.68,8.68,0,0,0-4.6-1.06,9.45,9.45,0,0,0-6.06,2,12.18,12.18,0,0,0-3.78,5.35,21.33,21.33,0,0,0-1.26,7.54v16.52Z" transform="translate(-5.9)"/><path class="cls-5" d="M257.55,473.66a20.21,20.21,0,0,1-6.85-1.13,13,13,0,0,1-5.35-3.53,12.53,12.53,0,0,1-2.95-6.1h6a6.17,6.17,0,0,0,2.06,3.29,9.16,9.16,0,0,0,3.5,1.75,15.59,15.59,0,0,0,3.9.51,11,11,0,0,0,6-1.47,8.45,8.45,0,0,0,3.33-4.05,15.75,15.75,0,0,0,1-5.86v-5a10,10,0,0,1-3.09,3.36,13.26,13.26,0,0,1-4.18,1.88,18.54,18.54,0,0,1-4.66.58,15.38,15.38,0,0,1-9-2.43,14.43,14.43,0,0,1-5.18-6.58,26.78,26.78,0,0,1,0-18.78,14.62,14.62,0,0,1,5.27-6.69,15.73,15.73,0,0,1,9.12-2.47,18.63,18.63,0,0,1,6.38,1.17,11.6,11.6,0,0,1,5.28,3.77l.27-4.53h5.55v35.86a19.7,19.7,0,0,1-1.81,8.77,12.69,12.69,0,0,1-5.49,5.69A19.13,19.13,0,0,1,257.55,473.66Zm-.41-20.91a9.83,9.83,0,0,0,6.1-1.85A11.69,11.69,0,0,0,267,446a17.09,17.09,0,0,0,1.3-6.72,16.92,16.92,0,0,0-1.26-6.72,10.11,10.11,0,0,0-10-6.38,10.16,10.16,0,0,0-6.27,1.79,10,10,0,0,0-3.43,4.79,20.16,20.16,0,0,0-1.06,6.72,19.79,19.79,0,0,0,1.1,6.86A9.69,9.69,0,0,0,250.9,451,10.51,10.51,0,0,0,257.14,452.75Z" transform="translate(-5.9)"/><path class="cls-5" d="M320.28,457.48a15.1,15.1,0,0,1-6.62-1.23,7.4,7.4,0,0,1-3.63-3.84,16.5,16.5,0,0,1-1.13-6.58V426.5H303v-5.15h5.9V410.59h5.82v10.76h9.67v5.15h-9.67v18.71q0,3.71,1.34,5.45t5.45,1.75h2.67v5.07Z" transform="translate(-5.9)"/><path class="cls-5" d="M332.89,457.48V409h5.83v17.89a12.64,12.64,0,0,1,3.18-3.26,14.41,14.41,0,0,1,4.15-2,15.89,15.89,0,0,1,4.66-.69c3.52,0,6.28.74,8.26,2.2a11.68,11.68,0,0,1,4.22,5.93,27.22,27.22,0,0,1,1.23,8.53v19.88H358.6v-18.1a36.12,36.12,0,0,0-.31-4.76,14.81,14.81,0,0,0-1.2-4.28,7.22,7.22,0,0,0-2.71-3.09,9,9,0,0,0-4.9-1.16,9.31,9.31,0,0,0-5,1.3,9.66,9.66,0,0,0-3.32,3.46,17,17,0,0,0-1.82,4.73,22.61,22.61,0,0,0-.58,5v16.86Z" transform="translate(-5.9)"/><path class="cls-5" d="M391,457.89a17.65,17.65,0,0,1-9.53-2.36A14.5,14.5,0,0,1,375.8,449a23.38,23.38,0,0,1-1.85-9.53,22.1,22.1,0,0,1,2-9.56,15.37,15.37,0,0,1,5.72-6.55,16.88,16.88,0,0,1,9.25-2.4,15.41,15.41,0,0,1,7.31,1.62,14.71,14.71,0,0,1,5,4.28,17.61,17.61,0,0,1,2.88,5.86,20.33,20.33,0,0,1,.76,6.41c-.05.41-.08.82-.1,1.23s-.06.83-.11,1.24h-26.8a15.32,15.32,0,0,0,1.57,5.69,10,10,0,0,0,3.71,4,11.21,11.21,0,0,0,6,1.47,15.41,15.41,0,0,0,3.6-.44,9.12,9.12,0,0,0,3.29-1.54,6,6,0,0,0,2.09-2.95h6a11.51,11.51,0,0,1-3.09,5.72,13.92,13.92,0,0,1-5.41,3.29A20.49,20.49,0,0,1,391,457.89Zm-11-21.38h20.9a11.36,11.36,0,0,0-1.37-5.42,9.41,9.41,0,0,0-3.53-3.63,10.3,10.3,0,0,0-5.31-1.31,10.46,10.46,0,0,0-5.66,1.44,9.9,9.9,0,0,0-3.53,3.77A13.75,13.75,0,0,0,380,436.51Z" transform="translate(-5.9)"/><path class="cls-5" d="M458,458q-7.54,0-12.51-3.19a19.32,19.32,0,0,1-7.41-8.74,31.34,31.34,0,0,1-2.43-12.68,34.74,34.74,0,0,1,1.34-9.87,22.56,22.56,0,0,1,4.08-7.92,18.57,18.57,0,0,1,6.89-5.28,23.51,23.51,0,0,1,9.76-1.88,24.42,24.42,0,0,1,9.33,1.64,17.24,17.24,0,0,1,6.54,4.6,16.54,16.54,0,0,1,3.6,7h-6.51a9.34,9.34,0,0,0-2.47-4.15,12.18,12.18,0,0,0-4.45-2.71,18,18,0,0,0-6.1-1,16.17,16.17,0,0,0-7.27,1.51,13.49,13.49,0,0,0-4.94,4.15,17.81,17.81,0,0,0-2.81,6.17,31,31,0,0,0-.89,7.57,26.63,26.63,0,0,0,1.71,9.74,15.49,15.49,0,0,0,5.28,7,15.18,15.18,0,0,0,9.19,2.61,17.29,17.29,0,0,0,7.95-1.68,11.88,11.88,0,0,0,5.08-4.87,15.52,15.52,0,0,0,1.78-7.64H456.83V433h21.6v4a23.59,23.59,0,0,1-2.47,11,17.77,17.77,0,0,1-7,7.34A21.75,21.75,0,0,1,458,458Z" transform="translate(-5.9)"/><path class="cls-5" d="M499.82,457.89a17.17,17.17,0,0,1-4.77-.65,12.64,12.64,0,0,1-4.11-2A9.59,9.59,0,0,1,487,447.2a10.91,10.91,0,0,1,1.13-5.21,8.77,8.77,0,0,1,3.05-3.36,13.31,13.31,0,0,1,4.45-1.78,24.62,24.62,0,0,1,5.28-.55h10.63a15.12,15.12,0,0,0-.86-5.35,7.15,7.15,0,0,0-2.78-3.53,9.11,9.11,0,0,0-5.07-1.27,14.8,14.8,0,0,0-3.56.41,7.53,7.53,0,0,0-2.81,1.31,5.13,5.13,0,0,0-1.72,2.4H488.5a9.49,9.49,0,0,1,1.89-4.22,11.84,11.84,0,0,1,3.43-2.88,16.93,16.93,0,0,1,4.35-1.68,20.59,20.59,0,0,1,4.66-.55q7.82,0,11.11,4.6t3.29,12.4v19.54h-4.87l-.34-4.59a10.41,10.41,0,0,1-3.64,3.15,14.74,14.74,0,0,1-4.35,1.48A25.35,25.35,0,0,1,499.82,457.89Zm.54-5.14a14.2,14.2,0,0,0,5.93-1.13,8.65,8.65,0,0,0,3.88-3.32,10,10,0,0,0,1.37-5.35v-1.78h-6.38c-1.51,0-3,0-4.45.07a17.64,17.64,0,0,0-4,.54,5.7,5.7,0,0,0-2.84,1.65,4.82,4.82,0,0,0-1.07,3.36,5.15,5.15,0,0,0,1.07,3.36,6.31,6.31,0,0,0,2.81,2A10.23,10.23,0,0,0,500.36,452.75Z" transform="translate(-5.9)"/><path class="cls-5" d="M528.2,470.51V421.35h5.55l.27,5.42a12.21,12.21,0,0,1,5-4.32,16,16,0,0,1,6.89-1.51,15.39,15.39,0,0,1,9,2.44,14.4,14.4,0,0,1,5.18,6.61,25.24,25.24,0,0,1,1.68,9.46,24.58,24.58,0,0,1-1.72,9.46,14.13,14.13,0,0,1-5.28,6.58,15.89,15.89,0,0,1-9.11,2.4,19.19,19.19,0,0,1-4.94-.58,12.47,12.47,0,0,1-3.84-1.71A14.5,14.5,0,0,1,534,453v17.55Zm17-17.76a10,10,0,0,0,6.3-1.81,10.31,10.31,0,0,0,3.4-4.84,19.82,19.82,0,0,0,1.06-6.65,20.16,20.16,0,0,0-1.06-6.72,9.91,9.91,0,0,0-3.46-4.79,10.45,10.45,0,0,0-6.38-1.79A10.06,10.06,0,0,0,539,428a11.49,11.49,0,0,0-3.8,4.87,16.79,16.79,0,0,0-1.3,6.68,17.82,17.82,0,0,0,1.23,6.79,10.2,10.2,0,0,0,3.77,4.73A11,11,0,0,0,545.2,452.75Z" transform="translate(-5.9)"/><path d="M5.9,457.48V409h17a34,34,0,0,1,6.58.58,14.82,14.82,0,0,1,5.1,1.95,9.16,9.16,0,0,1,3.33,3.7,13.13,13.13,0,0,1,1.17,5.9,12.81,12.81,0,0,1-1.68,6.58A10,10,0,0,1,32.22,432a10.84,10.84,0,0,1,7,3.81,12.43,12.43,0,0,1,2.33,7.91,13.58,13.58,0,0,1-1.5,6.72,11.21,11.21,0,0,1-4.15,4.22,18.77,18.77,0,0,1-6.07,2.19,38.4,38.4,0,0,1-7.27.65Zm6-27.21h9.32a23.52,23.52,0,0,0,4.73-.45,11.56,11.56,0,0,0,3.84-1.47,7.33,7.33,0,0,0,2.57-2.68,8.22,8.22,0,0,0,.93-4.11,6.35,6.35,0,0,0-1.37-4.66,7,7,0,0,0-3.81-2,25.61,25.61,0,0,0-5.1-.48H11.86Zm0,21.8H22.35a42.63,42.63,0,0,0,4.42-.24,16.25,16.25,0,0,0,4.28-1,7.2,7.2,0,0,0,3.23-2.5,7.76,7.76,0,0,0,1.23-4.6,7.87,7.87,0,0,0-.93-4,6.7,6.7,0,0,0-2.46-2.47A10.77,10.77,0,0,0,28.59,436a23.73,23.73,0,0,0-4.05-.35H11.86Z" transform="translate(-5.9)"/><path d="M51.42,457.48V421.35H57l.27,5.63a12.41,12.41,0,0,1,3.19-3.43,13.16,13.16,0,0,1,4-1.95,17,17,0,0,1,4.84-.66h1.85v5.49H69.1a11.93,11.93,0,0,0-6.89,1.81,10.19,10.19,0,0,0-3.8,4.87,18.76,18.76,0,0,0-1.17,6.75v17.62Z" transform="translate(-5.9)"/><path d="M81.78,416a3.77,3.77,0,0,1-2.84-1.1,3.86,3.86,0,0,1-1.06-2.81A3.71,3.71,0,0,1,79,409.32a3.91,3.91,0,0,1,2.81-1.06,4,4,0,0,1,2.78,1.1,3.55,3.55,0,0,1,1.2,2.74,3.68,3.68,0,0,1-1.17,2.81A3.94,3.94,0,0,1,81.78,416ZM78.9,457.48V421.35h5.83v36.13Z" transform="translate(-5.9)"/><path d="M110.3,457.89a15.26,15.26,0,0,1-8.91-2.43,14.62,14.62,0,0,1-5.21-6.58,24.36,24.36,0,0,1-1.72-9.36,24.85,24.85,0,0,1,1.72-9.42,14.57,14.57,0,0,1,5.28-6.69,15.69,15.69,0,0,1,9.12-2.47,18.08,18.08,0,0,1,4.28.52,16.27,16.27,0,0,1,4.08,1.57,10.66,10.66,0,0,1,3.29,2.85V409h5.83v48.46H122.5l-.27-5.41a10.25,10.25,0,0,1-3.12,3.32,13.85,13.85,0,0,1-4.15,1.89A17.68,17.68,0,0,1,110.3,457.89Zm.82-5.14a9.81,9.81,0,0,0,6.1-1.85A11.71,11.71,0,0,0,121,446a17.27,17.27,0,0,0,1.3-6.72,16.75,16.75,0,0,0-1.27-6.72,10.11,10.11,0,0,0-10-6.38,9.39,9.39,0,0,0-9.7,6.62,20.86,20.86,0,0,0-1.06,6.82,21.26,21.26,0,0,0,.59,5.11,12.2,12.2,0,0,0,1.85,4.18,8.65,8.65,0,0,0,3.32,2.84A11.2,11.2,0,0,0,111.12,452.75Z" transform="translate(-5.9)"/><path d="M154.86,473.66a20.31,20.31,0,0,1-6.86-1.13,13.06,13.06,0,0,1-5.34-3.53,12.44,12.44,0,0,1-2.95-6.1h6a6.17,6.17,0,0,0,2.06,3.29,9.09,9.09,0,0,0,3.5,1.75,15.59,15.59,0,0,0,3.9.51,11,11,0,0,0,6-1.47,8.45,8.45,0,0,0,3.33-4.05,15.75,15.75,0,0,0,1-5.86v-5a9.84,9.84,0,0,1-3.08,3.36,13.26,13.26,0,0,1-4.18,1.88,18.54,18.54,0,0,1-4.66.58,15.38,15.38,0,0,1-9-2.43,14.36,14.36,0,0,1-5.18-6.58,26.86,26.86,0,0,1,0-18.78,14.7,14.7,0,0,1,5.28-6.69,15.73,15.73,0,0,1,9.12-2.47,18.63,18.63,0,0,1,6.38,1.17,11.62,11.62,0,0,1,5.27,3.77l.28-4.53h5.55v35.86a19.7,19.7,0,0,1-1.81,8.77,12.69,12.69,0,0,1-5.49,5.69A19.15,19.15,0,0,1,154.86,473.66Zm-.41-20.91a9.83,9.83,0,0,0,6.1-1.85,11.69,11.69,0,0,0,3.77-4.93,17.09,17.09,0,0,0,1.3-6.72,16.75,16.75,0,0,0-1.27-6.72,10.6,10.6,0,0,0-3.73-4.66,10.73,10.73,0,0,0-6.24-1.72,10.14,10.14,0,0,0-6.27,1.79,10,10,0,0,0-3.43,4.79,22,22,0,0,0,0,13.58,9.71,9.71,0,0,0,3.5,4.73A10.51,10.51,0,0,0,154.45,452.75Z" transform="translate(-5.9)"/><path d="M185.37,416a3.8,3.8,0,0,1-2.85-1.1,3.86,3.86,0,0,1-1.06-2.81,3.68,3.68,0,0,1,1.1-2.78,3.89,3.89,0,0,1,2.81-1.06,4,4,0,0,1,2.77,1.1,3.55,3.55,0,0,1,1.2,2.74,3.71,3.71,0,0,1-1.16,2.81A4,4,0,0,1,185.37,416Zm-2.88,41.47V421.35h5.82v36.13Z" transform="translate(-5.9)"/><path d="M199.42,457.48V421.35H205l.27,5.49a10.91,10.91,0,0,1,3.16-3.29,14.32,14.32,0,0,1,4.21-1.95,16.22,16.22,0,0,1,4.49-.66c3.52,0,6.28.74,8.27,2.2a12,12,0,0,1,4.25,5.93,26.39,26.39,0,0,1,1.26,8.46v20h-5.82V439.11a38.22,38.22,0,0,0-.31-4.87,13.25,13.25,0,0,0-1.24-4.18,7.05,7.05,0,0,0-2.63-2.91,8.68,8.68,0,0,0-4.6-1.06,9.45,9.45,0,0,0-6.06,2,12.18,12.18,0,0,0-3.78,5.35,21.33,21.33,0,0,0-1.26,7.54v16.52Z" transform="translate(-5.9)"/><path d="M257.55,473.66a20.21,20.21,0,0,1-6.85-1.13,13,13,0,0,1-5.35-3.53,12.53,12.53,0,0,1-2.95-6.1h6a6.17,6.17,0,0,0,2.06,3.29,9.16,9.16,0,0,0,3.5,1.75,15.59,15.59,0,0,0,3.9.51,11,11,0,0,0,6-1.47,8.45,8.45,0,0,0,3.33-4.05,15.75,15.75,0,0,0,1-5.86v-5a10,10,0,0,1-3.09,3.36,13.26,13.26,0,0,1-4.18,1.88,18.54,18.54,0,0,1-4.66.58,15.38,15.38,0,0,1-9-2.43,14.43,14.43,0,0,1-5.18-6.58,26.78,26.78,0,0,1,0-18.78,14.62,14.62,0,0,1,5.27-6.69,15.73,15.73,0,0,1,9.12-2.47,18.63,18.63,0,0,1,6.38,1.17,11.6,11.6,0,0,1,5.28,3.77l.27-4.53h5.55v35.86a19.7,19.7,0,0,1-1.81,8.77,12.69,12.69,0,0,1-5.49,5.69A19.13,19.13,0,0,1,257.55,473.66Zm-.41-20.91a9.83,9.83,0,0,0,6.1-1.85A11.69,11.69,0,0,0,267,446a17.09,17.09,0,0,0,1.3-6.72,16.92,16.92,0,0,0-1.26-6.72,10.11,10.11,0,0,0-10-6.38,10.16,10.16,0,0,0-6.27,1.79,10,10,0,0,0-3.43,4.79,20.16,20.16,0,0,0-1.06,6.72,19.79,19.79,0,0,0,1.1,6.86A9.69,9.69,0,0,0,250.9,451,10.51,10.51,0,0,0,257.14,452.75Z" transform="translate(-5.9)"/><path d="M320.28,457.48a15.1,15.1,0,0,1-6.62-1.23,7.4,7.4,0,0,1-3.63-3.84,16.5,16.5,0,0,1-1.13-6.58V426.5H303v-5.15h5.9V410.59h5.82v10.76h9.67v5.15h-9.67v18.71q0,3.71,1.34,5.45t5.45,1.75h2.67v5.07Z" transform="translate(-5.9)"/><path d="M332.89,457.48V409h5.83v17.89a12.64,12.64,0,0,1,3.18-3.26,14.41,14.41,0,0,1,4.15-2,15.89,15.89,0,0,1,4.66-.69c3.52,0,6.28.74,8.26,2.2a11.68,11.68,0,0,1,4.22,5.93,27.22,27.22,0,0,1,1.23,8.53v19.88H358.6v-18.1a36.12,36.12,0,0,0-.31-4.76,14.81,14.81,0,0,0-1.2-4.28,7.22,7.22,0,0,0-2.71-3.09,9,9,0,0,0-4.9-1.16,9.31,9.31,0,0,0-5,1.3,9.66,9.66,0,0,0-3.32,3.46,17,17,0,0,0-1.82,4.73,22.61,22.61,0,0,0-.58,5v16.86Z" transform="translate(-5.9)"/><path d="M391,457.89a17.65,17.65,0,0,1-9.53-2.36A14.5,14.5,0,0,1,375.8,449a23.38,23.38,0,0,1-1.85-9.53,22.1,22.1,0,0,1,2-9.56,15.37,15.37,0,0,1,5.72-6.55,16.88,16.88,0,0,1,9.25-2.4,15.41,15.41,0,0,1,7.31,1.62,14.71,14.71,0,0,1,5,4.28,17.61,17.61,0,0,1,2.88,5.86,20.33,20.33,0,0,1,.76,6.41c-.05.41-.08.82-.1,1.23s-.06.83-.11,1.24h-26.8a15.32,15.32,0,0,0,1.57,5.69,10,10,0,0,0,3.71,4,11.21,11.21,0,0,0,6,1.47,15.41,15.41,0,0,0,3.6-.44,9.12,9.12,0,0,0,3.29-1.54,6,6,0,0,0,2.09-2.95h6a11.51,11.51,0,0,1-3.09,5.72,13.92,13.92,0,0,1-5.41,3.29A20.49,20.49,0,0,1,391,457.89Zm-11-21.38h20.9a11.36,11.36,0,0,0-1.37-5.42,9.41,9.41,0,0,0-3.53-3.63,10.3,10.3,0,0,0-5.31-1.31,10.46,10.46,0,0,0-5.66,1.44,9.9,9.9,0,0,0-3.53,3.77A13.75,13.75,0,0,0,380,436.51Z" transform="translate(-5.9)"/><path d="M458,458q-7.54,0-12.51-3.19a19.32,19.32,0,0,1-7.41-8.74,31.34,31.34,0,0,1-2.43-12.68,34.74,34.74,0,0,1,1.34-9.87,22.56,22.56,0,0,1,4.08-7.92,18.57,18.57,0,0,1,6.89-5.28,23.51,23.51,0,0,1,9.76-1.88,24.42,24.42,0,0,1,9.33,1.64,17.24,17.24,0,0,1,6.54,4.6,16.54,16.54,0,0,1,3.6,7h-6.51a9.34,9.34,0,0,0-2.47-4.15,12.18,12.18,0,0,0-4.45-2.71,18,18,0,0,0-6.1-1,16.17,16.17,0,0,0-7.27,1.51,13.49,13.49,0,0,0-4.94,4.15,17.81,17.81,0,0,0-2.81,6.17,31,31,0,0,0-.89,7.57,26.63,26.63,0,0,0,1.71,9.74,15.49,15.49,0,0,0,5.28,7,15.18,15.18,0,0,0,9.19,2.61,17.29,17.29,0,0,0,7.95-1.68,11.88,11.88,0,0,0,5.08-4.87,15.52,15.52,0,0,0,1.78-7.64H456.83V433h21.6v4a23.59,23.59,0,0,1-2.47,11,17.77,17.77,0,0,1-7,7.34A21.75,21.75,0,0,1,458,458Z" transform="translate(-5.9)"/><path d="M499.82,457.89a17.17,17.17,0,0,1-4.77-.65,12.64,12.64,0,0,1-4.11-2A9.59,9.59,0,0,1,487,447.2a10.91,10.91,0,0,1,1.13-5.21,8.77,8.77,0,0,1,3.05-3.36,13.31,13.31,0,0,1,4.45-1.78,24.62,24.62,0,0,1,5.28-.55h10.63a15.12,15.12,0,0,0-.86-5.35,7.15,7.15,0,0,0-2.78-3.53,9.11,9.11,0,0,0-5.07-1.27,14.8,14.8,0,0,0-3.56.41,7.53,7.53,0,0,0-2.81,1.31,5.13,5.13,0,0,0-1.72,2.4H488.5a9.49,9.49,0,0,1,1.89-4.22,11.84,11.84,0,0,1,3.43-2.88,16.93,16.93,0,0,1,4.35-1.68,20.59,20.59,0,0,1,4.66-.55q7.82,0,11.11,4.6t3.29,12.4v19.54h-4.87l-.34-4.59a10.41,10.41,0,0,1-3.64,3.15,14.74,14.74,0,0,1-4.35,1.48A25.35,25.35,0,0,1,499.82,457.89Zm.54-5.14a14.2,14.2,0,0,0,5.93-1.13,8.65,8.65,0,0,0,3.88-3.32,10,10,0,0,0,1.37-5.35v-1.78h-6.38c-1.51,0-3,0-4.45.07a17.64,17.64,0,0,0-4,.54,5.7,5.7,0,0,0-2.84,1.65,4.82,4.82,0,0,0-1.07,3.36,5.15,5.15,0,0,0,1.07,3.36,6.31,6.31,0,0,0,2.81,2A10.23,10.23,0,0,0,500.36,452.75Z" transform="translate(-5.9)"/><path d="M528.2,470.51V421.35h5.55l.27,5.42a12.21,12.21,0,0,1,5-4.32,16,16,0,0,1,6.89-1.51,15.39,15.39,0,0,1,9,2.44,14.4,14.4,0,0,1,5.18,6.61,25.24,25.24,0,0,1,1.68,9.46,24.58,24.58,0,0,1-1.72,9.46,14.13,14.13,0,0,1-5.28,6.58,15.89,15.89,0,0,1-9.11,2.4,19.19,19.19,0,0,1-4.94-.58,12.47,12.47,0,0,1-3.84-1.71A14.5,14.5,0,0,1,534,453v17.55Zm17-17.76a10,10,0,0,0,6.3-1.81,10.31,10.31,0,0,0,3.4-4.84,19.82,19.82,0,0,0,1.06-6.65,20.16,20.16,0,0,0-1.06-6.72,9.91,9.91,0,0,0-3.46-4.79,10.45,10.45,0,0,0-6.38-1.79A10.06,10.06,0,0,0,539,428a11.49,11.49,0,0,0-3.8,4.87,16.79,16.79,0,0,0-1.3,6.68,17.82,17.82,0,0,0,1.23,6.79,10.2,10.2,0,0,0,3.77,4.73A11,11,0,0,0,545.2,452.75Z" transform="translate(-5.9)"/></g></g></svg>